<?xml version="1.0" encoding="utf-8"?>
<!-- Generator: Adobe Illustrator 24.0.2, SVG Export Plug-In . SVG Version: 6.00 Build 0)  -->
<svg version="1.1" id="Layer_1" xmlns="http://www.w3.org/2000/svg" xmlns:xlink="http://www.w3.org/1999/xlink" x="0px" y="0px"
	 viewBox="0 0 142.4 137.9" style="enable-background:new 0 0 142.4 137.9;" xml:space="preserve">
<style type="text/css">
	.st0{clip-path:url(#SVGID_2_);}
	.st1{fill:#3366FF;}
	.st2{fill-rule:evenodd;clip-rule:evenodd;fill:#3366FF;}
	.st3{fill:#FFFFFF;}
	.st4{fill-rule:evenodd;clip-rule:evenodd;fill:#3366FF;fill-opacity:0.47;}
</style>
<g>
	<g>
		<defs>
			<rect id="SVGID_1_" y="15" width="122.9" height="122.9"/>
		</defs>
		<clipPath id="SVGID_2_">
			<use xlink:href="#SVGID_1_"  style="overflow:visible;"/>
		</clipPath>
		<g class="st0">
			<path class="st1" d="M63.6,109.8c18.7,0,33.8-14.5,33.8-32.4S82.3,45,63.6,45c-18.7,0-33.8,14.5-33.8,32.4S44.9,109.8,63.6,109.8
				z"/>
			<path class="st2" d="M101.6,29.7l8.8,8.8c2.3,2.3,2.3,6.1,0,8.4l-7.1,7.1c2,3.7,3.5,7.6,4.4,11.8h9.2c3.3,0,6,2.7,6,6v12.5
				c0,3.3-2.7,6-6,6h-10c-1.2,4.1-3,7.9-5.2,11.4l6.5,6.5c2.3,2.3,2.3,6.1,0,8.4l-8.8,8.8c-2.3,2.3-6.1,2.3-8.4,0l-7.1-7.1
				c-3.7,2-7.6,3.5-11.8,4.4v9.2c0,3.3-2.7,6-6,6H53.6c-3.3,0-6-2.7-6-6v-10c-4.1-1.2-7.9-3-11.4-5.2l-6.5,6.5
				c-2.3,2.3-6.1,2.3-8.4,0l-8.8-8.8c-2.3-2.3-2.3-6.1,0-8.4l7.1-7.1c-2-3.7-3.5-7.6-4.4-11.8H6c-3.3,0-6-2.7-6-6V68.6
				c0-3.3,2.7-6,6-6h10c1.2-4.1,3-7.9,5.2-11.4l-6.5-6.5c-2.3-2.3-2.3-6.1,0-8.4l8.8-8.8c2.3-2.3,6.1-2.3,8.4,0l7.1,7.1
				c3.7-2,7.6-3.5,11.8-4.4V21c0-3.3,2.7-6,6-6h12.5c3.3,0,6,2.7,6,6v10c4.1,1.2,7.9,3,11.4,5.2l6.5-6.5
				C95.5,27.4,99.3,27.4,101.6,29.7z M61.4,51.9C75,51.9,86,62.9,86,76.4C86,90,75,101,61.4,101c-13.5,0-24.5-11-24.5-24.5
				C36.9,62.9,47.9,51.9,61.4,51.9z"/>
			<path class="st3" d="M59,53.3v-3.6c-0.4-0.2-0.9-0.4-1.3-0.6c-3.3-1.9-4.6-6-3.2-9.5c0.4-0.9,0.9-1.8,1.7-2.5
				c0.7-0.7,1.5-1.3,2.5-1.6c0.9-0.4,1.9-0.6,2.9-0.6c3.1,0,5.9,1.9,7,4.7c0.8,1.9,0.8,4,0,5.8c-0.4,0.9-0.9,1.8-1.7,2.5
				c-0.4,0.4-0.9,0.8-1.5,1.1c-0.4,0.2-0.8,0.4-1.3,0.6v3.6H82c5.3,0,9.7,4.3,9.7,9.7v1.4H95c2.7,0,4.9,2.2,5,5v11.5
				c0,2.7-2.2,4.9-5,5h-3.3v1.3c0,5.3-4.3,9.7-9.7,9.7H57.5l-14.6,12.7c-0.7,0.6-1.7,0.5-2.3-0.2c-0.3-0.3-0.4-0.7-0.4-1.2L41,96.8
				h-0.1c-5.3,0-9.6-4.3-9.7-9.7v-1.3h-3.3c-2.7,0-5-2.2-5-5V69.4c0-2.7,2.2-4.9,5-5h3.3V63c0-5.3,4.3-9.7,9.7-9.7H59z M74.8,64.7
				c3.2,0,5.9,2.6,5.9,5.9c0,3.2-2.6,5.9-5.9,5.9c-3.3,0-5.9-2.6-5.9-5.9C68.9,67.3,71.5,64.7,74.8,64.7z M48.1,64.7
				c3.2,0,5.9,2.6,5.9,5.9c0,3.2-2.6,5.9-5.9,5.9c-3.3,0-5.9-2.6-5.9-5.9C42.2,67.3,44.8,64.7,48.1,64.7z M52.1,84.4
				c-0.1-0.1-0.2-0.1-0.2-0.2c-0.2-0.2-0.3-0.5-0.3-0.9c0-0.3,0.1-0.6,0.3-0.9c0.1-0.1,0.2-0.2,0.2-0.2c0.7-0.6,1.7-0.6,2.4-0.1
				c1.1,0.8,2.3,1.5,3.5,2c1.1,0.4,2.3,0.6,3.4,0.6c1.2,0,2.4-0.3,3.5-0.7c1.3-0.5,2.5-1.2,3.6-2c0.7-0.5,1.7-0.5,2.4,0.1
				c0.1,0.1,0.2,0.2,0.2,0.3c0.2,0.3,0.3,0.6,0.3,0.9c0,0.3-0.2,0.6-0.4,0.8c-0.1,0.1-0.2,0.2-0.3,0.2c-1.4,1-3,1.9-4.6,2.5
				c-1.5,0.6-3.1,0.9-4.7,0.9c-1.6,0-3.2-0.2-4.7-0.8C55.1,86.4,53.5,85.5,52.1,84.4z M82,56.6H40.8c-3.5,0-6.4,2.9-6.4,6.4v24.2
				c0,3.5,2.9,6.4,6.4,6.4h2c0.9,0.1,1.6,0.8,1.5,1.7l-0.6,9.1L55.8,94c0.3-0.3,0.7-0.5,1.1-0.5H82c3.5,0,6.4-2.9,6.4-6.4V63
				C88.4,59.5,85.6,56.6,82,56.6z"/>
		</g>
	</g>
	<path class="st4" d="M133.9,16.1l-6-6c-1.6-1.6-4.2-1.6-5.8,0l-4.4,4.4c-2.4-1.5-5-2.7-7.8-3.6V4.1c0-2.2-1.8-4.1-4.1-4.1h-8.5
		c-2.2,0-4.1,1.8-4.1,4.1v6.3c-2.8,0.6-5.5,1.7-8,3l-4.9-4.9c-1.6-1.6-4.2-1.6-5.8,0L70,13h2.6c3.3,0,6,2.7,6,6v10
		c2.9,0.8,5.6,2,8.2,3.3c3-4.3,8-7.1,13.7-7.1c9.3,0,16.8,7.5,16.8,16.8c0,6.2-3.4,11.7-8.4,14.6c0.9,2.3,1.7,4.7,2.2,7.2h9.2
		c3.3,0,6,2.7,6,6v5.8c0.1,0,0.1-0.1,0.2-0.2l6-6c1.6-1.6,1.6-4.2,0-5.8l-4.5-4.5c1.5-2.4,2.7-5,3.6-7.8h6.9c2.2,0,4.1-1.8,4.1-4.1
		v-8.5c0-2.2-1.8-4.1-4.1-4.1H132c-0.6-2.8-1.7-5.5-3-8l4.9-4.9C135.5,20.3,135.5,17.7,133.9,16.1z"/>
</g>
</svg>
